<svg data-v-0dd9719b="" version="1.0" xmlns="http://www.w3.org/2000/svg" xmlns:xlink="http://www.w3.org/1999/xlink" width="100%" height="100%" viewBox="0 0 340.000000 250.000000" preserveAspectRatio="xMidYMid meet" color-interpolation-filters="sRGB" style="margin: auto;"> <rect data-v-0dd9719b="" x="0" y="0" width="100%" height="100%" fill="#fff" fill-opacity="1" class="background"></rect> <rect data-v-0dd9719b="" x="0" y="0" width="100%" height="100%" fill="url(#watermark)" fill-opacity="1" class="watermarklayer"></rect> <g data-v-0dd9719b="" fill="#333" class="icon-text-wrapper icon-svg-group iconsvg" transform="translate(48.13999938964844,95)"><g class="iconsvg-imagesvg" transform="translate(0,0)"><g><rect fill="#333" fill-opacity="0" stroke-width="2" x="0" y="0" width="60" height="60" class="image-rect"></rect> <svg x="0" y="0" width="60" height="60" filtersec="colorsb4170179077" class="image-svg-svg primary" style="overflow: visible;"><svg xmlns="http://www.w3.org/2000/svg" viewBox="0 0 100 100"><path d="M53.46 98.92c8.29-1.68 14.63-10.08 18.45-19a88.77 88.77 0 0 1-18.45 2.45zM26.75 25.67a81.35 81.35 0 0 0-3.31 20.88h24.19V22.36a81.35 81.35 0 0 0-20.88 3.31zM47.63 0C39.34 1.68 33 10.08 29.17 19a89.64 89.64 0 0 1 18.46-2.45zm-30 46.55a90.24 90.24 0 0 1 2.45-18.46c-8.9 3.82-17.3 10.17-19 18.46zm60 5.82H53.46v24.19a81.65 81.65 0 0 0 20.87-3.3 81.5 81.5 0 0 0 3.31-20.89zM69 95.69A49.92 49.92 0 0 0 96.77 67.9 53.77 53.77 0 0 1 79 77.87a53.77 53.77 0 0 1-10 17.82zM32.11 3.23A49.89 49.89 0 0 0 4.32 31a53.57 53.57 0 0 1 17.82-10 53.57 53.57 0 0 1 9.97-17.77zM100 52.37H83.47A89.46 89.46 0 0 1 81 70.83c8.93-3.83 17.33-10.16 19-18.46z" fill="#3a46d6"></path><path d="M69 31h15.49v15.55H100V31H84.49V15.51H69V0H53.45v15.51H69V31H53.45v15.55H69zM31 69H15.52V53.45H0V69h15.52v15.49H31V100h15.55V84.49H31V69h15.55V53.45H31z" fill="#2ca6f1" fill-rule="evenodd"></path></svg></svg> <!----></g></g> <g transform="translate(67,6.123750686645508)"><g data-gra="path-name" fill-rule="" class="tp-name iconsvg-namesvg" transform="translate(0,0)"><g transform="scale(1)"><g><path d="M10.4-19.22L10.4-27.86 14.36-27.86 14.36 3.2Q14.36 3.42 14.2 3.58 14.04 3.74 13.82 3.74L13.82 3.74 10.4 3.74 10.4-4.07Q7.13-1.51 1.66 1.08L1.66 1.08 1.66-2.88Q4.46-4.36 6.55-5.51 8.64-6.66 10.4-7.85L10.4-7.85 10.4-16.88 2.48-16.88 2.48-19.22 10.4-19.22ZM31.64-7.49L34.34-7.49 33.98 0.36Q33.91 1.84 33.16 2.52 32.4 3.2 30.78 3.13L30.78 3.13 23.29 3.13Q19.94 3.13 19.94-0.22L19.94-0.22 19.94-27.86 23.9-27.86 23.9-16.13Q25.78-17.42 27.41-19.24 29.05-21.06 29.99-23.26L29.99-23.26 34.31-23.26Q32.65-19.76 29.92-17.14 27.18-14.51 23.9-13.32L23.9-13.32 23.9-0.36Q23.9 1.08 25.34 1.08L25.34 1.08 29.48 1.08Q30.67 1.08 30.74-0.18L30.74-0.18 31.1-6.95Q31.1-7.16 31.27-7.33 31.43-7.49 31.64-7.49L31.64-7.49ZM69.84-23.26Q69.84-23.04 69.68-22.88 69.52-22.72 69.3-22.72L69.3-22.72 38.2-22.72 38.2-25.06 51.88-25.06Q50.47-27.14 48.82-28.98L48.82-28.98 53.14-28.98Q54.32-27.47 55.48-25.06L55.48-25.06 69.84-25.06 69.84-23.26ZM62.46-9.07L56.23-9.07 56.23-0.61Q56.23 3.17 52.45 3.17L52.45 3.17 46.33 3.17 46.33 0.83 51.01 0.83Q52.27 0.83 52.27-0.43L52.27-0.43 52.27-9.07 41.69-9.07 41.69-19.87 66.24-19.87 66.24-12.85Q66.24-9.07 62.46-9.07L62.46-9.07ZM45.65-17.53L45.65-11.41 61.02-11.41Q62.28-11.41 62.28-12.67L62.28-12.67 62.28-17.53 45.65-17.53ZM44.24-7.06L48.2-7.06Q47.38-5 45.72-2.99 44.06-0.97 41.98 0.52 39.89 2.02 37.87 2.56L37.87 2.56 37.87 0.04Q39.82-0.9 41.22-2.59 42.62-4.28 44.24-7.06L44.24-7.06ZM63.72-7.06Q65.34-4.28 66.74-2.59 68.15-0.9 70.09 0.04L70.09 0.04 70.09 2.56Q68.08 2.02 65.99 0.52 63.9-0.97 62.24-2.99 60.59-5 59.76-7.06L59.76-7.06 63.72-7.06ZM86.62-22.68L106.02-22.68 106.02-20.88Q106.02-20.66 105.86-20.5 105.7-20.34 105.48-20.34L105.48-20.34 93.13-20.34 93.13-7.99Q95.9-10.33 97.69-12.78 99.47-15.23 99.97-17.28L99.97-17.28 104.29-17.28Q103.5-14.33 100.53-10.85 97.56-7.38 93.13-4.43L93.13-4.43 93.13-0.94Q93.13 0.5 94.57 0.5L94.57 0.5 101.27 0.5Q102.46 0.5 102.53-0.76L102.53-0.76 102.89-7.42Q102.89-7.63 103.05-7.79 103.21-7.96 103.43-7.96L103.43-7.96 105.77-7.96 105.41-0.22Q105.34 1.26 104.58 1.94 103.82 2.63 102.2 2.56L102.2 2.56 92.52 2.56Q89.17 2.56 89.17-0.79L89.17-0.79 89.17-2.12Q85.68-0.29 81.83 0.86L81.83 0.86 81.83-1.48Q85.75-2.92 89.17-5.11L89.17-5.11 89.17-20.34 86.62-20.34 86.62-20.27Q86.62-10.76 82.87-5.09 79.13 0.58 73.66 3.49L73.66 3.49 73.66 1.15Q75.67-0.58 77.67-3.38 79.67-6.19 81.14-10.51 82.62-14.83 82.66-20.34L82.66-20.34 74.63-20.34 74.63-22.68 82.66-22.68 82.66-28.98 86.62-28.98 86.62-22.68ZM100.87-23.15L97.92-23.15Q97.56-23.83 96.37-25.42 95.18-27 93.64-28.73L93.64-28.73 97.96-28.73Q98.78-27.68 99.29-26.68 99.79-25.67 100.44-24.16L100.44-24.16 100.87-23.15ZM133.67-28.98Q135.32-24.62 137.48-21.49 139.64-18.36 142.34-16.06L142.34-16.06 142.34-13.72Q138.6-15.8 135.9-18.4 133.2-20.99 131.47-24.48L131.47-24.48Q130.07-21.24 128.05-18.9L128.05-18.9 132.23-18.9Q133.99-16.67 136.04-12.1L136.04-12.1 132.62-12.1Q131.65-13.97 130.64-15.59 129.64-17.21 127.98-18.83L127.98-18.83Q125.42-15.88 121.64-13.9L121.64-13.9 121.64-16.24Q123.37-17.64 124.6-19.4 125.82-21.17 126.77-23.27 127.73-25.38 129.1-28.98L129.1-28.98 133.67-28.98ZM121-25.24L121-3.89Q121-0.11 117.22-0.11L117.22-0.11 110.7-0.11 110.7-25.24 121-25.24ZM117.04-22.9L114.66-22.9 114.66-2.45 115.78-2.45Q117.04-2.45 117.04-3.71L117.04-3.71 117.04-22.9ZM122.65-10.51L139-10.51 139-8.17Q138.85-5.98 137.27-3.37 135.68-0.76 133.49 1.28 131.29 3.31 129.46 3.82L129.46 3.82 129.46 1.48Q131.04 0.25 132.55-2.34 134.06-4.93 134.53-8.17L134.53-8.17 122.65-8.17 122.65-10.51ZM177.66-22.93Q177.66-22.72 177.5-22.55 177.34-22.39 177.12-22.39L177.12-22.39 162.4-22.39 162.4-24.73 168.8-24.73Q167-27.36 165.53-28.98L165.53-28.98 169.85-28.98Q171.18-27.22 172.37-24.73L172.37-24.73 177.66-24.73 177.66-22.93ZM161.35-24.48L157.32-24.48 157.32-20.02 161.57-20.02 161.57-0.72Q161.57 3.06 157.79 3.06L157.79 3.06 146.02 3.06 146.02-20.02 150.19-20.02 150.19-24.48 145.66-24.48 145.66-26.82 161.89-26.82 161.89-25.02Q161.89-24.8 161.73-24.64 161.57-24.48 161.35-24.48L161.35-24.48ZM154.44-20.02L154.44-24.48 153.43-24.48 153.43-20.02 154.44-20.02ZM166.32-14.58Q164.7-11.92 161.86-10.15L161.86-10.15 161.86-12.67Q163.73-14.94 164.16-21.53L164.16-21.53 168.12-21.53Q168.12-19.62 167.69-18L167.69-18 167.9-18Q169.27-14.51 170.06-10.94L170.06-10.94 167.36-10.94Q167.36-11.45 167.11-12.4 166.86-13.36 166.32-14.58L166.32-14.58ZM172.48-21.53L176.44-21.53Q176.44-19.69 176-18L176-18 176.33-18Q177.3-15.73 177.64-14.47 177.98-13.21 178.15-12.26 178.31-11.3 178.38-10.94L178.38-10.94 175.68-10.94Q175.68-12.24 174.6-14.62L174.6-14.62Q173.74-13.21 172.58-12.19 171.43-11.16 170.1-10.69L170.1-10.69 170.1-13.21Q172.08-15.62 172.48-21.53L172.48-21.53ZM150.19-17.68L149.26-17.68 149.26-10.55Q149.87-11.63 150.03-13.05 150.19-14.47 150.19-16.74L150.19-16.74 150.19-17.68ZM158.22-8.53Q154.44-8.53 154.44-12.31L154.44-12.31 154.44-17.68 153.43-17.68 153.43-16.78Q153.43-12.67 152.35-10.57 151.27-8.46 149.26-7.63L149.26-7.63 149.26-6.08 158.33-6.08 158.33-8.53 158.22-8.53ZM158.33-17.68L157.32-17.68 157.32-12.13Q157.32-11.05 158.33-10.87L158.33-10.87 158.33-17.68ZM171.79-10.19L171.79-6.95 178.34-6.95 178.34-5.15Q178.34-4.93 178.18-4.77 178.02-4.61 177.8-4.61L177.8-4.61 171.79-4.61 171.79 3.2Q171.79 3.42 171.63 3.58 171.47 3.74 171.25 3.74L171.25 3.74 167.83 3.74 167.83-4.61 161.89-4.61 161.89-6.95 167.83-6.95 167.83-10.19 171.79-10.19ZM157.07 0.72Q158.33 0.72 158.33-0.54L158.33-0.54 158.33-3.74 149.26-3.74 149.26 0.72 157.07 0.72Z" transform="translate(-1.6600000858306885, 28.979999542236328)"></path></g> <!----> <!----> <!----> <!----> <!----> <!----> <!----></g></g> <g data-gra="path-slogan" fill-rule="" class="tp-slogan iconsvg-slogansvg" fill="#333" transform="translate(5,38.79999923706055)"><rect x="0" height="1" y="3.9750003814697266" width="19.865001678466797"></rect> <rect height="1" y="3.9750003814697266" width="19.865001678466797" x="146.85499954223633"></rect> <g transform="translate(22.865001678466797,0)"><g transform="scale(1)"><path d="M4.13-7.64L2.06-7.64L2.06-4.97L4.13-4.97Q5.95-4.92 5.91-6.38L5.91-6.38Q5.91-7.64 4.13-7.64L4.13-7.64ZM4.59 0L0.89 0L0.89-8.58L4.69-8.58Q6.98-8.48 7.08-6.42L7.08-6.42Q7.08-5.16 5.95-4.64L5.95-4.64Q7.55-4.08 7.55-2.53L7.55-2.53Q7.41-0.09 4.59 0L4.59 0ZM4.31-3.98L2.06-3.98L2.06-0.98L4.55-0.98Q6.33-1.03 6.38-2.53L6.38-2.53Q6.38-3.98 4.31-3.98L4.31-3.98ZM10.17-1.03L15.33-1.03L15.33 0L9 0L9-8.58L15.23-8.58L15.23-7.59L10.17-7.59L10.17-4.92L14.86-4.92L14.86-3.89L10.17-3.89L10.17-1.03ZM17.02-8.58L18.19-8.58L18.19 0L17.02 0L17.02-8.58ZM19.45-1.92L19.45-2.77L20.53-2.77L20.53-2.16Q20.53-0.75 21.84-0.75L21.84-0.75Q23.20-0.75 23.20-2.25L23.20-2.25L23.20-8.58L24.38-8.58L24.38-2.30Q24.33 0.09 21.89 0.14L21.89 0.14Q19.59 0.09 19.45-1.92L19.45-1.92ZM26.34-8.58L27.52-8.58L27.52 0L26.34 0L26.34-8.58ZM30.89-8.58L35.20-1.64L35.20-8.58L36.33-8.58L36.33 0L35.02 0L30.66-6.94L30.61-6.94L30.61 0L29.48 0L29.48-8.58L30.89-8.58ZM44.53-3.61L41.91-3.61L41.91-4.59L45.66-4.59L45.66 0L44.91 0L44.63-1.08Q43.64 0.09 41.81 0.14L41.81 0.14Q40.08 0.14 39.14-0.75L39.14-0.75Q37.73-2.06 37.78-4.36L37.78-4.36Q38.11-8.63 41.86-8.81L41.86-8.81Q45.05-8.63 45.52-6L45.52-6L44.39-6Q43.92-7.78 41.81-7.83L41.81-7.83Q39.14-7.64 39-4.31L39-4.31Q39-0.75 41.86-0.75L41.86-0.75Q42.89-0.75 43.64-1.31L43.64-1.31Q44.58-2.06 44.53-3.61L44.53-3.61ZM50.77-8.58L51.94-8.58L51.94-1.03L56.30-1.03L56.30 0L50.77 0L50.77-8.58ZM64.22-4.27L64.22-4.27Q64.03-7.64 61.22-7.83L61.22-7.83Q58.36-7.69 58.22-4.27L58.22-4.27Q58.36-0.94 61.22-0.80L61.22-0.80Q64.03-0.98 64.22-4.27ZM65.39-4.27L65.39-4.27Q65.11 0 61.22 0.14L61.22 0.14Q57.28 0 57-4.27L57-4.27Q57.23-8.72 61.22-8.81L61.22-8.81Q65.11-8.67 65.39-4.27ZM68.16-8.58L72.47-1.64L72.47-8.58L73.59-8.58L73.59 0L72.28 0L67.92-6.94L67.88-6.94L67.88 0L66.75 0L66.75-8.58L68.16-8.58ZM81.80-3.61L79.17-3.61L79.17-4.59L82.92-4.59L82.92 0L82.17 0L81.89-1.08Q80.91 0.09 79.08 0.14L79.08 0.14Q77.34 0.14 76.41-0.75L76.41-0.75Q75-2.06 75.05-4.36L75.05-4.36Q75.38-8.63 79.13-8.81L79.13-8.81Q82.31-8.63 82.78-6L82.78-6L81.66-6Q81.19-7.78 79.08-7.83L79.08-7.83Q76.41-7.64 76.27-4.31L76.27-4.31Q76.27-0.75 79.13-0.75L79.13-0.75Q80.16-0.75 80.91-1.31L80.91-1.31Q81.84-2.06 81.80-3.61L81.80-3.61ZM91.64-8.58L88.41-3.47L88.41 0L87.23 0L87.23-3.47L84-8.58L85.36-8.58L87.80-4.45L90.28-8.58L91.64-8.58ZM92.86-8.58L94.03-8.58L94.03 0L92.86 0L92.86-8.58ZM97.41-8.58L101.72-1.64L101.72-8.58L102.84-8.58L102.84 0L101.53 0L97.17-6.94L97.13-6.94L97.13 0L96 0L96-8.58L97.41-8.58ZM105.47-1.03L110.77-1.03L110.77 0L104.02 0L104.02-0.94L109.27-7.59L104.39-7.59L104.39-8.58L110.77-8.58L110.77-7.59L105.47-1.03ZM117.56-3.19L117.56-8.58L118.73-8.58L118.73-3.05Q118.59 0.05 115.22 0.14L115.22 0.14Q112.08 0.05 111.94-2.86L111.94-2.86L111.94-8.58L113.11-8.58L113.11-3.19Q113.16-0.84 115.27-0.80L115.27-0.80Q117.56-0.84 117.56-3.19L117.56-3.19ZM120.70-8.58L121.88-8.58L121.88 0L120.70 0L120.70-8.58Z" transform="translate(-0.890625, 8.8125)"></path></g></g></g></g></g><defs v-gra="od"></defs></svg>